<svg width="89" height="52" viewBox="0 0 89 52" fill="none" xmlns="http://www.w3.org/2000/svg">
<path fill-rule="evenodd" clip-rule="evenodd" d="M84.8743 0C82.5969 0 80.7486 1.8681 80.7486 4.16987C80.7486 6.58839 82.5969 8.43981 84.8743 8.33973C87.1517 8.33973 89 6.47163 89 4.16987C89 1.8681 87.1517 0 84.8743 0ZM30.8934 16.9964C32.3786 18.9312 33.4348 21.1496 34.194 23.6014L34.227 23.5347C34.9696 26.0033 35.2996 28.672 35.2996 31.5409C35.2996 34.4264 34.9696 37.0951 34.2435 39.547C33.4843 41.9989 32.4281 44.2506 30.9429 46.052C29.4576 47.8701 27.6423 49.3545 25.4144 50.422C23.9292 51.0725 22.3284 51.6063 20.6286 51.8231C20.6286 51.8231 17.4435 52.3402 13.7304 51.6063C12.4597 51.3728 11.288 51.0725 10.2153 50.5388C10.1163 50.5388 10.1163 50.5388 10.0172 50.422C10.0172 50.322 9.90172 50.322 9.90172 50.322H9.81921C9.15909 50.005 8.631 49.6881 8.00389 49.2545C6.61765 48.2871 5.44595 47.2363 4.37326 45.9519C2.888 44.1172 1.83182 41.9989 1.07269 39.4469C0.330057 36.9951 0 34.3263 0 31.4408C0 28.672 0.330058 25.9032 1.05618 23.468C1.81532 20.8994 2.8715 18.7811 4.35676 16.8463C5.84202 15.0449 7.65733 13.5437 9.80271 12.4762C11.7831 11.5422 14.0274 10.9918 16.5689 10.875C18.2852 10.7749 19.7704 10.875 20.9256 11.0752L22.4934 11.4088C22.4934 11.5255 22.6089 11.5255 22.6915 11.5255C22.8235 11.6423 22.9225 11.6423 23.0215 11.6423C23.236 11.6423 23.4671 11.7757 23.4671 11.7757C24.0942 11.9425 24.8368 12.2761 25.4474 12.6097C27.5928 13.6605 29.4081 15.0616 30.8934 16.9964ZM74.4775 23.6014C73.7183 21.1496 72.6622 18.9312 71.1769 16.9964C69.6916 15.0616 67.8763 13.6605 65.7309 12.6097C65.1203 12.2761 64.3777 11.9425 63.7506 11.7757C63.7506 11.7757 63.5196 11.6423 63.305 11.6423C63.206 11.6423 63.0905 11.6423 62.975 11.5255C62.8759 11.5255 62.7769 11.5255 62.7769 11.4088L61.1927 11.0752C60.0375 10.875 58.5522 10.7749 56.8524 10.875C54.311 10.9918 52.0666 11.5422 50.0862 12.4762C47.9408 13.5437 46.1255 15.0449 44.6403 16.8463C43.155 18.7811 42.0988 20.8994 41.3397 23.468C40.6136 25.9032 40.2835 28.672 40.2835 31.4408C40.2835 34.3263 40.6136 36.9951 41.3562 39.4469C42.1153 41.8988 43.2705 44.1172 44.6568 45.9519C45.7295 47.2363 46.8847 48.2871 48.2874 49.2545C48.9145 49.6881 50.1852 50.322 50.1852 50.322C50.1852 50.322 50.2843 50.322 50.2843 50.422C50.355 50.422 50.3878 50.4556 50.4183 50.4867C50.4447 50.5136 50.4693 50.5388 50.5153 50.5388C51.588 51.0725 52.7432 51.3728 54.0304 51.6063C57.7436 52.3402 60.9286 51.8231 60.9286 51.8231C62.6284 51.6063 64.2292 51.0725 65.7144 50.422C67.9423 49.3545 69.7411 47.8701 71.2429 46.052C72.7282 44.2506 73.7844 41.9989 74.5435 39.547C75.2696 37.0951 75.5832 34.4264 75.5832 31.5409C75.5832 28.672 75.1706 26.0033 74.527 23.5347L74.4775 23.6014ZM49.6076 25.9366C50.0367 24.2686 50.5648 22.6507 51.3074 21.3664C52.0501 20.0988 53.0072 19.0313 54.0634 18.2974C55.1361 17.5468 56.4068 17.1298 57.7766 17.1298C59.1628 17.1298 60.3345 17.43 61.4072 18.1806C62.4634 18.9145 63.305 19.8486 64.0477 21.0495C64.7903 22.3338 65.3184 23.7182 65.7475 25.4195C66.193 27.1208 66.4076 28.8388 66.4076 30.7569V31.3908C66.4076 33.3089 66.193 35.227 65.8795 36.9283C65.4504 38.6463 64.9223 40.1308 64.1797 41.4318C63.437 42.6994 62.4799 43.6502 61.4072 44.4007C60.351 45.1513 59.0968 45.4682 57.694 45.4682C56.3078 45.4682 55.0536 45.1346 53.9809 44.4007C52.9082 43.6502 51.951 42.6994 51.2084 41.3984C50.4493 40.1308 49.9212 38.6463 49.4921 36.9283C49.0795 35.227 48.964 33.3089 48.964 31.3908C49.0795 29.556 49.2941 27.6546 49.6241 25.9533L49.6076 25.9366ZM9.43964 25.9366C9.85222 24.2686 10.3803 22.6507 11.1229 21.3664C11.8656 20.0988 12.8227 19.0313 13.8954 18.2974C14.9516 17.5468 16.2058 17.1298 17.6086 17.1298C18.9948 17.1298 20.1665 17.43 21.2392 18.1806C22.2789 18.9145 23.137 19.8486 23.8797 21.0495C24.6223 22.3338 25.1504 23.7182 25.5795 25.4195C26.0085 27.1208 26.2396 28.8388 26.2396 30.7569L26.2066 31.3908C26.2066 33.3089 26.0085 35.227 25.6785 36.9283C25.2659 38.6463 24.7213 40.1308 23.9787 41.4318C23.2526 42.6994 22.2954 43.6502 21.2392 44.4007C20.183 45.1513 18.8958 45.4682 17.5261 45.4682C16.1233 45.4682 14.8526 45.1346 13.7799 44.4007C12.7237 43.6502 11.7666 42.6994 11.0239 41.3984C10.3638 40.3476 9.86872 38.8632 9.42314 37.0618C8.99407 35.3438 8.87855 33.3923 8.87855 31.4908C8.87855 29.5727 8.99407 27.6546 9.40664 25.9533L9.43964 25.9366Z" fill="white"/>
</svg>
